/* XPM */
static char *_b06be909a744186a1cbca5b33f42ce8oJtvvCxNRcWU0L8n[] = {
/* columns rows colors chars-per-pixel */
"64 64 14 1 ",
"  c None",
". c #CB817C",
"X c #CD8580",
"o c #D89791",
"O c #DD9D97",
"+ c #DFA39B",
"@ c #E5AEA8",
"# c #E6B3AD",
"$ c #E7BAB4",
"% c #D4CABA",
"& c #E7C2BB",
"* c #DDD9CB",
"= c #E7CAC5",
"- c #EEE6DE",
/* pixels */
"                                                                ",
"                                                                ",
"                                                                ",
"                                                                ",
"                                                                ",
"                                                                ",
"                                                                ",
"                                                                ",
"              .####$$$$$##############$$$$##########            ",
"              .##$$$$$$$$$$$$$####$$$$$$$$$$$$$#####            ",
"              .$$###########$$$$$##$######$$$##$$###            ",
"              .#$$#############$$$$$$$########$$$$$$            ",
"              .###$$$$########$$####$$$$###########$            ",
"              .#####$$$$##########################$#            ",
"              .#####################################            ",
"              .ooooooooooooooooooooooooooooooooooooo            ",
"              --@@@@o###        X###        XXXo@@@@            ",
"              -*@@#@o ###      XXX###      XXX o#@@@            ",
"              -*@#@@o  ###    XXX  ###    XXX  o##@@            ",
"              **##@@o   ###  XXX    ###  XXX   o##@#            ",
"              .##$@#o    ###XXX      ###XXX    o####            ",
"              .##$@#o     ###X        ###X     o##$#            ",
"              .##$##o     X###        X###     o#$##            ",
"              .#$$##o    XXX###      XXX###    o$$##            ",
"              .#$$#$o   XXX  ###    XXX  ###   o$$$#            ",
"              .#$$#$o  XXX    ###  XXX    ###  o$$$#            ",
"              .#$$$$o#XXX      ###XXX      ###Xo$$$#            ",
"              .#$$$#o##X        ###X        ###o$$$$            ",
"              .##$$#o###        X###        X##o$$#$            ",
"              .##$$#oX###      XXX###      XXX#o$$#$            ",
"              .##$##o  ###    XXX  ###    XXX  o$#$$            ",
"              .#####o   ###  XXX    ###  XXX   o$#$$            ",
"              --$###o    ###XXX      ###XXX    o##$$            ",
"              -*$###o     ###X        ###X     o##$$            ",
"              -*$$##o     X###        X###     o##$$            ",
"              **$$##o    XXX###      XXX###    o###$            ",
"              .#$$#$==============&&&&&&&&&&&&&$###$            ",
"              .##$$$###$$$#########################$            ",
"              .##$$$$$&&&&$$$$$#########$$$#########            ",
"              .###$$&&$$&&&&$$$$$$###$$$$###########            ",
"              .###$&&$####$$$$####$$##$&&&$######$##            ",
"              .##$$$#########$$$%---#&&&$$$$####$###            ",
"              .####$$$$$###$$##%-##%-#$$$#######$###            ",
"              .###$##$$#######%-####%-##########$$##            ",
"              .#####Oooooooooo%oooooo-oooooooooO$$##            ",
"              .##$##o##$$$##$+%######-+$$$$$$$#o$$#$            ",
"              .#$###o###$$$$$+%-####%-+$$$###$$o$$#$            ",
"              .#$##$o#$$####$+#%-##%-#+$##$$###o$$$#            ",
"              --$##$o$$######+##%%%-##+########o#$$#            ",
"              -*###$o########+########+##$#####o#$$#            ",
"              -*#$#$o##$#####+$$####$$+##$$####o#$$$            ",
"              **$$#$o#$$###$#o$$$$$$$$o#$#$####o#$$$            ",
"              .$$$$$o#$$$##$#o$$$$$$$$o#$######o$$$$            ",
"              .#$$$#o#$$$##$$o$$$$$$$#o$$######o$$$$            ",
"              .#$$$#o##$$###$o#$$$$#$#o$$######o$$#$            ",
"              .#$$$$o##$$####o#$$$$###o$#######o$$##            ",
"              .#$$#$o#$#$$###+#$$#$###+$#$####$o$$$#            ",
"              .#$$#$o#$#$$###+##$#$###+$$$####$o$$$#            ",
"              .##$##o###$$##$+##$##$##+$$#$##$$o$$##            ",
"              .##$##o##$$$$#$+##$#####+#$$$$#$$o####            ",
"              .###$#o###$$$$$+########+##$$$$$#o####            ",
"              ......................................            ",
"                                                                ",
"                                                                "
};
