/* XPM */
static char *_9bf03ad465a4c93b7db31d71458983eNxnmZGs1bLO7JiMy[] = {
/* columns rows colors chars-per-pixel */
"64 64 19 1 ",
"  c None",
". c #CB817C",
"X c #CD8580",
"o c #D08A85",
"O c #D3918D",
"+ c #D89791",
"@ c #DD9D97",
"# c #DFA39B",
"$ c #E1A8A1",
"% c #E3A9A2",
"& c #E5AEA8",
"* c #E6B3AD",
"= c #E7BAB4",
"- c #D4CABA",
"; c #E7C2BB",
": c #D8D1C2",
"> c #DDD9CB",
", c #E7CAC5",
"< c #EEE6DE",
/* pixels */
"<>:>==***=**OO  ;***&    X.oXX    =%%%%    XXooo  OO;;**=***=*OX",
">::>==**=***OO   ;&*&&  X.XXo      =%%%%  XXXXo   OO;;**=*=*=*OX",
">:-:==**=**=OO    =&&%%XXooo        =%%%%XoXoo    OO=;**===*=*OO",
":---==*==*==OO     =%&%%oXo          =%%%%Xoo     OO=;**==****OO",
";;**=**==*=*,,,,,;;;;;;;;;;;,,;;;;,,,,,,;;,;;;;;;;;*==***=***=OX",
";;=*=***==**,,;;;;;;;;;;;;;;;;;;;;;;;;;;;;;;;;;;;;*@*=*=****==OX",
",,;***=**=**,;*******=====***===**====******==**==@@*===****=*OO",
",,;=**=*****;;******====**===********===******====@@*===****=*OX",
",,;==*=***=*,;==******==;;;=*******==*******====**@@**=;***=**OO",
",,;==*=***=*,;*===***;;===;;;;==***************==*@@**=;*=*=**OO",
",,=*=*==**=*;;****==;;=*****===******===***==*****@@=*==*===**OO",
",,=***==***=;;**=====*************====****==******@@======*=**OO",
";;**=*==*=*=;;****************<<<>**===******==***@@=====**=*=OO",
";;**=*==*===;;**************<<>>>>>>******======**@@*=;==*====@O",
",;=*==*=*=;=;;******==*****<>>%%%%-->**====;;=**==@@*=;=;=====@O",
";;=*==*===;=;;**====*==***<>%%%%&&%%->***=;;===***@@**;;;==*==@O",
",;;=*=*=*=;;;;===********<>%%&%%%&&&%->****=****==@@=*=;;;=*=*@@",
",;;=*=***=;;;;*===*******<>%%%&&&&&%%->*****=*====@@=*=;=;=***@O",
";;;===**=;;;O@@OOOOOOOOO<>XXOOOOOXOXXX->OOOOOOOOO++@=====;==**@@",
";;;;==**=;;;@OOOOOOOOOOO<>XXXOOOOOOOOX->OOOOOOOOOOX+==*=;===**@@",
";;=;=*=*;;=;OX&&&&&&&&&&<>%%%%%%%%%%%%->&&&&&&&&&&@X;=**====*=@O",
";;=;=*==;=;;@X&=&&*&*&&&>>%%%%&%%%&%%%>-&*&&&&*&**@@;==*====*=@O",
";;=====;==;;@O==&&=**&&=O>-%&%&&%%&&%--O**&*&&****@@;=;=======@O",
";;==*==;==;;@@=*&*==**&=@--%&&&&%&%&%--O****&*==**@@;;;=======@@",
";;==**=;==;;#@*=*=*=**==@O>-%&&&&%%%->O@&*=*=====*@@;;=;*=====@O",
";;==**=;==;;#@*===****==@O*>--&&%%-->*@@&==*=====*@@;;=;=*====@O",
";;=;=*====;;#@*==****=*=@@**--------**@#*=====;===@@;;===*=;==OO",
";;=;=*===;=;@@**=***==*=@#****----*=**##*=;===;=*=@@;;===*=;==OO",
";;=;*=*==;==@@****=*=;**##*=***=****=*#@**;;*=;==*@@;;==**=;=*@O",
";;;===*=;;*=@@****===;=*##==***==***=*@@**;;*=;==*@@;===**;;=*@O",
",;;=;=**;=*=@#*****=;;==##==*=**=*=*==@@&*=;**;;**@#;===*=;==*OO",
",;;;;=**;***##*****=;;==##====**=*====@@&*=;**;;**@#;===*=;=*=@O",
";;;;;==*=***#@******;;*=##*===***=;=*=@@&===*=;;*=@@==*=====*=OO",
";;=;;;=*=***#@******;=*=##*===**==;=*=@@*=*=*==;==@#=*====*=**OO",
",;=;=;******#@**=***;=**#@**==**=*;;**@@*=**===;=;@@=*=*=;*=**OO",
",;===;******#@**=***;==*#@**===*=*;;=*@@==**=====;@@=***=;==**OO",
",;====***=**##**=***===*@@=*;==***=;=*#@*=**==;=;;@@*=*==;=*=*OO",
",;==*=*=*=**##**=***==**@@=*;==***=;**#@****=;;=;=@@*=*=;;=*=*OO",
",;==***===**#@*=*****=**@#==;=**=*;==*##****=;;===@#****;=**==OO",
";;==****==**#@*=*****=**##==;=*==*;==*##*****;;;==@#****==**==OO",
"<<<>****==**##*==***=***#@*=;=*=====*=@#*=***=;;;=@#****=**=*=OO",
"<>>:=***==**##===***=***#@*==;*=;===*=@@==*=*=;=;=##******==*=OO",
"<:>:*=***==*@#*=;******=#@**=;==;;=***#@;=*===;===##=*****=***OX",
"<>::*=***==*@#*=;=*****=@@**;;==;;=*=*#@;==*===;==##=***=*=***OO",
"<>:>==***==*@@=*;=*=***=@@=*;;===;=*==#@;==*;=====##=***=*****OX",
">::>===**=*=@@=*;=*=**==@@=*=;===;*=*=#@;;=*;=====#@*=*==*****OX",
">:-:=*=****=#@**=;*=**=*@@===;;===*=**#@=;==;;=*=*#@*=*=***=**OO",
":---=*=***=*#@**=;==****@#=*=;;===***=##=;===;**=*##*===**==*=OX",
";;**=*=*=*=*##*==;=;*=**@#=**;;;==**=*##===*=;*=**@#**==**=**=OX",
";;**=**==*=*##*==;=;*=**#@==*;=;==**=*@#*==**;==*=@#**=******=XX",
";;*==**=****#@=*=;;;==**##==*==;=*=*=*@#=*;=*=;=*=@@****=***==XX",
";;*===******#@=**;;;==**##==*=;;=*===*@#**;===;=*=#@****==**==XX",
";;*===***=**#@==*=;;=**=##;=**;=**;=**@@*=;=====**##=**===**=*XX",
";;*===***=**#@==*=;==**=##;=**;=**;=*=@@*=;;=;==**##=**=*=****XX",
";;*=*=*=*=**@@;==*;=**==#@=;**==*=;=*=#@*;;;=;=*=*##=*==*****=OX",
";;=**=*=*=**@@;==*;=**==#@*;=*=*==;;=*#@=;=;==**=*##*==*****==OX",
";;=****===**#@;;**=;=*==##*==***===;=*@@===;;=*==*#@**=***=*=*XX",
";;=****==***#@=;***;====##*=****==*;**@@=*;;;=*=**#@**=***=*=*XX",
";;*=****=**=@@==***===*=#@*****===*=**@@**=;===***@@*=****==**XX",
";;*=****=*==@@*=***=*=*=#@*****=*=**=*@@**=;*==***@@*=*=**==**XX",
";;*****=**==@@=******=**@@****==****==O@*===**==**@@====**==**XX",
";;*****=**=*@@=*****=***@@****==*****=@O*=*==*==**@@===****=**XX",
";*%%%%%%%%%%@O%%%%%%%@%%@O@@@%%%%%%%@@OO@@@%%%%%%@@+OOOOOOOOOOoX",
"*%%%%%%%%%@@OO@%%%%%%%@@OOO@%%%%%%%%%@O@@%%%%%%%%%+OOOOOOOOOOOOo"
};
