/* XPM */
static char *_86b98ee806d4d5db527626dec3ac428SDSvl38rK7Jp0zRn[] = {
/* columns rows colors chars-per-pixel */
"64 64 14 1 ",
"  c #504E4E",
". c #3C3B3B",
"X c #5D5B5B",
"o c #686868",
"O c #777777",
"+ c gray52",
"@ c gray57",
"# c gray66",
"$ c #C5C5C5",
"% c gray69",
"& c #9D9D9D",
"* c gray13",
"= c #101010",
"- c gray50",
/* pixels */
"                ......     .. ................ .......          ",
"                                                                ",
"  XXXXXXXXXoXXoooOO+++++O+OOoooooXXooXXXoooooooXXXoooXoXXXXXXX  ",
"  XXXXXXXooXXooO++++++@++++++OoOoooXXoooooOO++OOoXXXooXXXXXXXX  ",
"  XXXXXoooXXoXXoO++O+++@@+++OOOoOoooXXoooOO++++OOoooXXXXooXXXX  ",
"  XXXooooXoooooXooOO+O++@@++++OOoXXooXXoooOOO+++OOoooXXoooooXX  ",
"  XXooOOooooOO++OOooO+O+++O+O++OXXoOooOOoooO++OOOOooOooOoooooX  ",
"  oXoOOoooOO++++++OoooOO+++OO+OoXoooOOOOOOooOOOOoXoOooOOOOoooX  ",
"  ooXoooOOO++++++++OoXoOOO++OOOXoOoOO+++++OOoooXXoOOOO+++OOOoo  ",
"  XoXooOOO+++++@++OOOoXoOOOOOOoXoOO+OO++++++OoXXoOOO++++++OOOo  ",
"  oXooOOOO+++@@+++++OOXXoOOoooXXOO+O+++++++++Oooo++@@++OOO++OO  ",
"  XXooOOO++@@@++@@+++OoXXXooXXXoO+++++++@@++++OXoO++@@++OOO++O  ",
"  XoooO+O+++@@@#$$$$$$#oXXXXoXoOO++++++@@#$$$$$$#oOOO+@+++OOOO  ",
"  oooOO+++++++#$%%%%%%$#oXooXXoO++@@+@@@#$%%%%%%$#+O+++++++OOo  ",
"  XooOo++O+++#$%%%%%%%%$#oXooXXo+O+@@@@#$%%%%%%%%$#+++++OO++Oo  ",
"  XooooO+OO++$%%%%%%%%%%$XXoXoXXOO+++@@$%%%%%%%%%%$O+++OOOOO+O  ",
"  oOooOOO+O+$%%%%%%%%%%%%$oXXooXoOO+++$%%%%%%%%%%%%$OO++OOOOOo .",
"  OOOooOO++@$%%%%%%%%%%%%$XXoOOoXXOO++$%%%%%%%%%%%%$@oOOOOOoOo .",
"  oOOOOoOO+$%%%%%%%%%%%%%%$O++OOooXOO$%%%%%%%%%%%%%%$OooOOoOoX .",
". oOoOOOOOO$%%%%%%####%%%%$+O++++OooO$%%%%####%%%%%%$OOoooooX  .",
". ooOooXXo@%%%%%##    #%%%$O++@+@+OOo$%%%#    ##%%%%%@oooooXXX .",
". oOOOooXX$%%%###@   o@#%%%$@@@@+++O$%%%#@   o@###%%%$oooXXXXX .",
"  OoOooOOo$%%####@   o@##%%$@@++++++$%%##@   o@####%%$OoooXXoo .",
". oOooOOo@%######@   o@##%%%@+++@@++%%%##@   o@######%@ooXXooX .",
"  oooOooo$####%%#@   o@###%%$+@@@@@$%%###@   o@#%%####$XXXXXXo  ",
". Xoooooo$##%%###@   o@#####%$@@@@$%#####@   o@###%%##$oXXX  X .",
". oXXooO@%#%%%%##@  oo@&&####%$$$$%####&&@o oo@##%%%%#%@ooXX   .",
"  XXooOo$#%#%####@oooo@#&&#####%%#####&&#@oooo@####%#%#$OOooXX .",
". ooOOoO$########%$$$$%####&&&######&&###%$$$$%#######%$OOOooO .",
". oooOO@%##%%#####%%%%#######&&&############%%%%#######%@oOOOo .",
". oOOOo$##%%##&#####%%%%####&&&@@&&####%%#%%%%#########%$oooOo .",
". OOOo@%####&&&&###%%%%###%%#&@@@@&&#%##########&&##&###%@oOoo  ",
". oOoo$###&&&###########%%&&@@@&&##&&#%%######&&&&&&#####$OOoo  ",
". ooo@%####&&&#&##%%%##%%##&&@@@&&###%%%%%#&&###&&&######%@ooX  ",
". XoX%##%#######&&#%###&&@@&##&&&#&&#&#%%%%#&&####&&&&####%XXX  ",
". XX%#%%######&&&####%%#&&@@&&##&&#&&#&#%%%%###############%XX .",
"  %%###%%%##########*=====================**%%##############%% .",
"  ####%%%###########&*===================**$%%%##%%###%%%%####  ",
"  ##%%%#######%%###%%&*=================**$%%###%%##%%%####&&# .",
"  ###%%%#########%###%&*===============**$%%#########%%%####&& .",
"  #&&&##########%%%%##%-*=============**$%%%%%###########&&&&& .",
"  &&&#######&&####%%%%%#-*===========**$%%%%###%%#######&&&&&& .",
"  &&&&&#############%%###-*=========**$%%%#################&&& .",
"  &&&&&&#######&&&#######%-*=======**$%%%%%%%#%%######&&##&&&& .",
". &&####&&&&&&##&&&##%%###%-*=====**$%%#%%%%###%%######&&####@  ",
". &#######&&&@@&######%%#%%%-*===**$%##%%%##################&@  ",
". &&&&&##&&@@@&&&&###&&#%%#%%-*=**$%##%%##########&&&####&&&&@  ",
". @&&&&&&&&&@@@@&&&&###%%#%%%%-**$%##%%####&&###&&&&######&&#@  ",
". @@@&&&###&&&&&@@&&&&######%%%$$%#############&&@@&&&&######@  ",
". @@@@&&&###&&&&&&&&&&&&#####&&########&&###&&@@@@&&&&&&####&@  ",
". @@&&&&&&&&####&&&&&&&###&&&&####&&&&&&######&&@@@@&#####&&&@  ",
". @&&&&&##&&&&###&&&&&&&&&&&###&&&&&&&&&&&#####&&&@@@&##&##&@@  ",
"  @@@&&&&&&&&##&&&&&&&&&&&&&&&&&&####&&&&&&&#&&@@&&&&&&&##&&@@  ",
"  @@@@&&&&&&&&&&&&&&@@&&&&&&&##&&&##&&&&&&&&&@@@&&&&&&&@&&&&@@  ",
"  @@&&&@&&&&@@&&&&@@@@@&&###&&&&######&&&&@@@@@&#&&#&@@&&&&@@@  ",
"  @&&&@@@@&&&&&&@@@@&&&&&&####&&&###&&##&&&@@@&&&##&@@&&&@@@@@  ",
"  &&&&&&&@@@&&&&&&&@@@@&&&&&&&&&&&&&###&&@@@@&&&##&&&&&&&&@&&@  ",
"  @@&&&@@@@&&&&&&@@@@@@@&&&&&&&&@@&&&###@@@@@@@&&&@@&&@@@@&&@@  ",
"  @@@@&&@@&&&@@@@@@@@&&&&&@@@@&&&@@@@@&&&&&@@@&&&&&@@@@@@@@@@@  ",
"  -@@@@@@@@@&&@@@@@@@@&&@@&&@@@@@@@@@&&@@&&&@@@@&&&&@@@@@@@@@-  ",
"  ---@@@@@@@@@@@@@@@@@@@@@@@@@@@@@@@@@@@@@@@@@@@@@@@@@@@@@@---  ",
"  ooooooooooOOOOOOooooooOooOOOOOOOOOOOOOOOOOOooOOooooooooooooo  ",
"                                                                ",
"           ...... ..              ...............               "
};
