/* XPM */
static char *b5d9d0721c8541d7b0d2f00e1c28bc54l2puNskWxQgLyMJp[] = {
/* columns rows colors chars-per-pixel */
"64 64 251 2 ",
"   c #010101",
".  c #0B0102",
"X  c #000903",
"o  c #02020A",
"O  c #0B0C0B",
"+  c #070609",
"@  c #130C0C",
"#  c #17080B",
"$  c #13140C",
"%  c #1B1B0D",
"&  c #17170B",
"*  c #060712",
"=  c #180D15",
"-  c #0B1715",
";  c #151514",
":  c #1C1413",
">  c #151B14",
",  c #1C1B15",
"<  c #13141B",
"1  c #1C151B",
"2  c #131B1B",
"3  c #1C1B1B",
"4  c #061309",
"5  c #25180D",
"6  c #2B0D18",
"7  c #241414",
"8  c #221A15",
"9  c #24141C",
"0  c #231B1C",
"q  c #2B1618",
"w  c #381517",
"e  c #371114",
"r  c #15221B",
"t  c #1B211C",
"y  c #182416",
"u  c #142211",
"i  c #232317",
"p  c #1C1B23",
"a  c #1A1826",
"s  c #1C1C34",
"d  c #151629",
"f  c #231523",
"g  c #241B22",
"h  c #291A26",
"j  c #351723",
"k  c #271128",
"l  c #1A2526",
"z  c #1A2837",
"x  c #143132",
"c  c #232224",
"v  c #2B2529",
"b  c #332726",
"n  c #2A2937",
"m  c #392937",
"M  c #363334",
"N  c #223633",
"B  c #480E1C",
"V  c #5A0918",
"C  c #491618",
"Z  c #561317",
"A  c #4F0E0B",
"S  c #660817",
"D  c #7A0A17",
"F  c #6C0F14",
"G  c #4D1424",
"H  c #47303A",
"J  c #710A26",
"K  c #33463A",
"L  c #173847",
"P  c #183D55",
"I  c #13314C",
"U  c #233945",
"Y  c #473646",
"T  c #54374F",
"R  c #62394E",
"E  c #673D65",
"W  c #174746",
"Q  c #194958",
"!  c #185858",
"~  c #254651",
"^  c #15645C",
"/  c #185A64",
"(  c #10506F",
")  c #186267",
"_  c #1A767A",
"`  c #196A76",
"'  c #24626C",
"]  c #295368",
"[  c #484646",
"{  c #5B4D59",
"}  c #565457",
"|  c #50504E",
" . c #67465A",
".. c #714957",
"X. c #5A5163",
"o. c #785568",
"O. c #6F4D6B",
"+. c #747274",
"@. c #8A080B",
"#. c #970709",
"$. c #890516",
"%. c #970516",
"&. c #941715",
"*. c #A6030D",
"=. c #B9010B",
"-. c #AA0317",
";. c #B90219",
":. c #920522",
">. c #B90225",
",. c #AA0B21",
"<. c #AD2B37",
"1. c #C9020B",
"2. c #D5030C",
"3. c #DB020E",
"4. c #DB0408",
"5. c #C4021B",
"6. c #C80218",
"7. c #D50214",
"8. c #DC0213",
"9. c #D4021B",
"0. c #DC021B",
"q. c #D70917",
"w. c #E3000D",
"e. c #E6020A",
"r. c #E30114",
"t. c #EA0014",
"y. c #E3011B",
"u. c #EA001C",
"i. c #E30A18",
"p. c #F10117",
"a. c #C70324",
"s. c #DA0424",
"d. c #D61131",
"f. c #E30122",
"g. c #E60524",
"h. c #E71031",
"j. c #E62C3D",
"k. c #E63436",
"l. c #943440",
"z. c #EB314B",
"x. c #D32B4C",
"c. c #8A5473",
"v. c #8D6B7D",
"b. c #A85B6C",
"n. c #EE5667",
"m. c #EF5F68",
"M. c #13887F",
"N. c #075C86",
"B. c #0E6E8F",
"V. c #247681",
"C. c #0476AF",
"Z. c #8F5D88",
"A. c #99678A",
"S. c #8F6786",
"D. c #A76991",
"F. c #B879A4",
"G. c #B06EA3",
"H. c #C9759F",
"J. c #F0788E",
"K. c #CB7AAD",
"L. c #DA79C0",
"P. c #178888",
"I. c #189697",
"U. c #168991",
"Y. c #16A399",
"T. c #0184B9",
"R. c #1295A9",
"E. c #209AA4",
"W. c #17A8AA",
"Q. c #17AAB5",
"!. c #0CBABB",
"~. c #17B9BA",
"^. c #0CADAD",
"/. c #23A5B2",
"(. c #27ACB3",
"). c #249197",
"_. c #73A9B6",
"`. c #559DA9",
"'. c #0BC4BC",
"]. c #17C2BD",
"[. c #22C0BF",
"{. c #008CC8",
"}. c #0295CC",
"|. c #028BD6",
" X c #0294D4",
".X c #0294DC",
"XX c #0099D6",
"oX c #128BDC",
"OX c #0EBBC6",
"+X c #13BCC4",
"@X c #1CBDC4",
"#X c #14BECB",
"$X c #1BBDCB",
"%X c #19B5C6",
"&X c #19BDD2",
"*X c #09A8D0",
"=X c #23BBC8",
"-X c #24BAD2",
";X c #098DE1",
":X c #0194E3",
">X c #0298E5",
",X c #4EB5C9",
"<X c #0BC4C4",
"1X c #0DC4CB",
"2X c #09C8C9",
"3X c #14C2C4",
"4X c #1AC2C3",
"5X c #15C3CB",
"6X c #1BC3CB",
"7X c #15CAC9",
"8X c #0EC5D1",
"9X c #14C3D2",
"0X c #1AC3D2",
"qX c #17C7D5",
"wX c #22C3C9",
"eX c #24C5D5",
"rX c #8F8E8E",
"tX c #AAAAAD",
"yX c #F18D91",
"uX c #C884AE",
"iX c #CC85BA",
"pX c #D987B8",
"aX c #D899B6",
"sX c #EF93B0",
"dX c #F2A5B7",
"fX c #A6A1C5",
"gX c #D793C4",
"hX c #E78DCC",
"jX c #F48ECA",
"kX c #EB93CC",
"lX c #E795C9",
"zX c #F296CD",
"xX c #E995D3",
"cX c #F490D1",
"vX c #F18ED2",
"bX c #F9BAC6",
"nX c #C5C7C7",
"mX c #D9DBD8",
"MX c #D1CCCC",
"NX c #F0CDCA",
"BX c #D7E5D8",
"VX c #F1D7E6",
"CX c #EBECEB",
"ZX c #F7F8ED",
"AX c #FFECF7",
"SX c #FBFDF5",
"DX c #F5FEFD",
"FX c #FDFDFD",
"GX c #FAF6F7",
"HX c #F2F1EC",
"JX c #EBEBDF",
/* pixels */
"                                                  X       o X . +   . X       * o       . X                                     ",
"                                                + . X * .   *   X   + f d : -     o       o                                     ",
"                                                    .   . o     ; t & ( B.W < p o     o .   o                                   ",
"                                                X     . X * . $ r C..X.X.X.X{.t O o o   X o                                     ",
"                                                . o X X o   3 z  XoX:Xr 5 |.:XT.9   X . .   o                                   ",
"                                                  o       $ 9 {..X.XL 5 P  X:XC.g : d & o . o                                   ",
"                                                o X   # . 1 T.:X.X|.l z .X;XXX>X;X|.C.2 r   X X                                 ",
"                                                  X O ; : ( |.:X X:XC.{.>XXX X.XN.u N |.3 *                                     ",
"                                X   . +       . : t p U ` ~.<X6X6X#X#X*X*XXXXXXXt ( |. Xt - X o                                 ",
"                                        X > = s ( (.7X3X+XeX#X&X3X3X5X6X6X$X$X$XOX|.XX.XP 6                                     ",
"                                  * X . > f V.~.0X8X<X#X$X5X+X$X5X5X5X5X4X4X4X4X5XqX%XXXx = o                                   ",
"                                    # , W +X7X6X@X+X6XwX5X<X5X@X5X#X#X#X5X5X5X5X3X4X@X&X2 ; * X                                 ",
"                                X = 0 P.5X7XOX5X3X7X5X+X6X5X1X1X3X3X3X6X5X5X5X5X9X$X<XqXQ.l 5 o                                 ",
"                                t f E.5X#X-X<X$X5X#X$XwX6XOX+XwX5X5X5X3X3X3X3X3X5X~.4X3X!.%X, p                                 ",
"                              O = E.1X9X$X4X$X3X6X+X6X0X+X4X4X!.&X#X#X#X5X6X6X6X#X9X5X!.eX@XQ.3 O                               ",
"                              ; V.~.<X0X@X3XwX8X+X5X5X5X1X0X#X9X3X3X3X3X3X#X#X#XwX6X<X5X#X5X3XU.; +                             ",
"                          X $ I &X4X[.2X#X6X6X5X3X6X5X5X5X6X@X3X4X$X1X3X6X8X5X@X-X+X7X3X@X5X1X4XQ > o     X                     ",
"                  o     o   1 (.5X3XOX0X5XOX1X&X0X%X6X+X2X8X5X+X#X9X$X3X6X6X%X7X].<X#X$XqX1X5X#X/.1 + o     o                   ",
"                X o o     @ L !.].0X9X-X3X=XeXOX6XOX5XeX%X3X=X5XwX3X@X+XeX5XOX&XwXqX&X$X6X4X+X5X3XQ ;     X o                   ",
"                X o . o   0 W.qX4X$X<X'.3XQ._ ^ ! _ ^.3X5X2X6X2X+X3X3X9XOX~.4X^.R.R.Q.3X6X$XqX1X6XW.0   . o o X                 ",
"                  o   X . : '.&X'.0X&XV.f l Y { } [ j n ^.#X$X].0X5X%XqX@X) 9 n H H 0 ; W Y.].=X0X1Xc <   o . X                 ",
"                      X > z 3X5X&X3Xs 0 nXFXDXSXFXSXZXrXa W.+X$X%X%X8X4XI m CXSXSXFXFXHXS.a ` 1X<X+X! 0 X o                     ",
"                    + X $ / =X1X1XP | SXFXFXFXFXSXFXFXSXrXa ].9X6XwXwXQ Y DXFXFXSXFXFXFXSXmXc ' 6XeXI.7 o     +                 ",
"                o   .   0 U.6X3XY.g SXDXFXFXDXFXFXFXFXDXFXn P.5X1X+X'.f BXSXFXFXSXFXFXFXFXFXmX1 Q.+X3X3                         ",
"                X   o   2 Q.5X5Xr rXDXSXFXSXFXFXFXZXFXFXFXtXc &X5X5X).y FXFXFXSXFXFXFXFXGXGXFX} W 1X@Xa O <   X X o .   X       ",
"                  a f f u ~.9X+X1 VXFXFXFXFXFXFXFXJXrXMXFXCX, #X+X6XQ +.FXnXnXGXFXFXFXFXFXFXGXCXv @X6Xc l c f #                 ",
"                a $ C..X: &X~.~.g GXFXFXDXFXFXSXAXr 1 , GXHX% ~.6X5Xl MXtX; 1 } FXFXFXFXFXFXFXFXd 6X3Xl C.>XT.l @ o             ",
"              + 9 .X X{.a ~.0X/.> DXFXFXFXFXSXFXCX@ g > VXFX, Q.6XOX7 CXrX3 f p SXFXGXFXFXFXFXFX3 7X@Xx B.XX>XC.< .             ",
"              ; I }.XXB.> $XOX~.t HXSXFXFXFXFXFXSX+.1 M FXHX7 ~.$XqX0 mXCXv 9 rXFXGXFXFXFXFXFXCX2 #X9XL N.;XXXXXz . X   .       ",
"              3 B.P d x 0 eX+X#Xp MXDXSXFXFXFXFXFXFXFXFXFXnXs 3X6XqXx rXFXSXFXFXFXFXFXFXFXFXFX+.~ #X6XN 7 0 l C.( &             ",
"              3 T.oX;X{.9 Q.wX5X/ T FXSXFXFXFXFXFXSXFXFXDXN ` 5X!.9X).p FXSXFXFXFXFXFXFXFXFXCXc E.#X'.l C.;XT. XB.3             ",
"              3 T.:X}..Xy Q.3X&X].s +.SXGXDXFXSXFXSXSXDX| x ~.0X3XqX$Xg | FXFXFXFXFXFXFXFXFXX.p +X5X5X9 T.:X}.:XB.3       o     ",
".     + o   X : ( Q U P p _ OX1X8XW.x [ BXFXFXFXFXDXmXH z ~.2X&X6X+X<X].I g tXZXSXFXFXFXBX[ z ~.#X^./ 7 8 j 0 q g 1   X     . X ",
"X . o   . # a q @.=.5.a.%.A h ~ _.fX_.] f v M { K b d / ~.<X5X6X=X<XeX@X~.M.l 8 n M K b g U _.`.n 9 -.7.2.q.u.7.=.w 9           ",
"    X X 2 e ;.2.J.f.3.8.3.s.w.C X.gXfX,X].I.V.) ' I.3X&XqX0X<X@X5X1X5X5X$X$X=X!.I.P._ I.+X,XfXb @.y.7.7.p.e.t.m.j.r.-.5 o X X   ",
"  o . 8 w s.f.bXJ.s.e.u.8.0.2.r ,X,X,X6X2XeX$X<X#X6X7X%X%X=X~.W.W.E.I.I.W.W.Q.%X-X$X5X#X9X%X,X,X8 f.f.0.0.0.9.sXVXj.e.y.0       ",
"X   * e 8.z.bXAXFXdXs.t.t.r.6 R.0XW.P./ ~ U l 0 , , & y 8 ; 0 c b v M m v h 3 , h > , 3 N ! U.=XU.6 t.3.0.z.SXGXFXHX0.3.=.q o . ",
"  . , a.u.w.z.NXFXNXi.0.u.@.i Q 2 9 v Y o.A.H.uXhXvXcXxXxXxXvXxXxXcXlXxXkXkXxXjXlXxXkXiXA.T l 2 z N F q.r.y.ZXFXsXz.y.i.9.5 * X ",
". + C u.7.3.f.AXJXyX4.f.6.7 3 R pXkXlXgXK.Z.Z.A.K.lXlXxXvXvXzXlXxXkXlXjXlXjXkXxXpXK.K.iXgXjXzXpXo.3 h $.#.7.k.j.n.u.t.8.s.5., o ",
"o & ;.0.r.q.y.3.f.;.j h > a S.zXF. .0 : c H Y H 3 , 0  .D.uXiXgXpXpXF.A.X.m < , : h j 3 > : 2 H D.G.1 l { p q 5.8.8.8.w.3.f.5 o ",
"  u s.f.7.t.8.y.$.1 } [ p 7 K.A.%  .uXgXkXkXxXlXlXhXF...a 9 q a 7 : 1 c o.F.iXlXkXxXxXhXlXhXK.A.G.T : , 0 8 i f 8.y.5.%.Z w $ o ",
"o - w Z F D %.D 3 O.3 Q.W a , O.iXpXkXzXvXvXzXxXxXhXpXuXF.A.Z.O.O.O...O.O.c.c.Z.v.b.v.c.c... .j , , % I qX] - 1 t 3 : @ O 4 o o ",
"o o X   # 1 1 < Q U.l ~.I.f w e k 2 0 < 2 : 8 h ; 3 p 1 t 7 r K ! ] / Q r h b 2 7 g f 0 8 2 V ;.0.a.l Q.!.n 7XQ.< o o o       . ",
"        o   X 9 I.3XW.W wXN ;.w.u.-.: 6.9.a.1.; 1.w E zXpXm ` %X+X3X~.z O.cXpXq 2.V r.0.y.1.8 ;.t.0.w 3X+X^.9XP.3             X ",
"    X   X .   : x #X~.qX%X5 q.t.2.8 9.w.0.2.8.G 5.%.b v pXxXm ~ 2XE.k G.gXK.v S ;.A r.2.i.4.9.s 7.8.D ^ 5X~.P.8 #   X         o ",
"      . X     X , v ` R.) $.w.g.B %.u.r.r.8.r.S @.=.O.G.g S.gXc.c k gXsXc.0 ..D :.$.3.8.s.8.4.#.Z 7.y., z g 2 < o         .     ",
"  X     X     o   ; O 0 u 2.d.6.3 8.h.n.n.0.y.%.$.5.E kXaXT T H R gXpXM | xXo.%.F #.f.J.AXAXm.8.7 9.8.B # X   X                 ",
"                X o * . S r.0.D -.0.GXNXJ.HXe.:.$.;.{ lXxXL.v | 3 T a H.xXcX .#.F -.n.FXyXz.VXg.%.V 7.>.9     o                 ",
"                      , >.w.8.6 w.z.DXj.h.AXj.@.:.*.H o...v MXFXFXM Y R m M v *.Z *.yXNXj.z.GXj.7.8 7.*.3   o                   ",
"                . X   # i 5.f.w 8.d.NXh.z.SX0.F -.%.H H } 3 FXSXDXtX .| g 3 f @.V ,.f.SXz.NXGXy.y.3 q : *                       ",
"                  X   o . & w S u.0.z.yXm.d.y.w ;.J v.H.Z.Y tXmXtXj b.H j e j D F -.r.9.k.z.d.w.t.S * o . X X .                 ",
"                      o . o $ %.p.2.f.y.y.r.7.3 9.e 7.8.w 5.-.C > s.y.9.A f.;.Z S :.r.f.0.u.7.y.q.#.$                           ",
"                      .   o % 5.i.y.f.r.8.7.0.9 8., u.7.t 7.0.-.r 7.y.0.> t.6.B %.$.r.6.u.t.2.r.f.;.1   .     X                 ",
"                .   X       7 5.3.0.f.t.r.u.9.7 g.: r.u.: 8.0.%.> -.r.8.C 1.1.j ;.S 8.u.u.7.r.s.t.6.a o . X                     ",
"                      . X X 7 >.r.y.8.u.u.7.&.F ;.Z r.9.p y.r.D B S s.y.%.V u.9 6.Z u.u.0.0.r.u.8.-.7   .                       ",
"                o X .       - > e w % 8 g w 7 h 8 $.r.=.G r.2.J %.1 r.r.8.h 8.8 Z 9 F S Z V C e h 1 O X   * o                   ",
"                              3 -.t.4.B 5.0.3.3 7.t.s.@.@.u.y.A -.q 2.y.8.g r.a.-.p *.;.>.q 7.7.S . X .                         ",
"                              ; D >.a.e 0.g.0.8 w.i.u.V a.s.f.Z ;.w ;.i.u.e =.e.7.A 1.w.8.w 5.1.Z @ X                           ",
"                              + : ; 3 v q ; 7 3 - p 6 3 7 % l 9 ; n $ 7 h a g t N a 9 d > p : g 6 X X o     .                   ",
"                                  3 w 7.8.i.0.f.d.%X!.+X,X~.$Xl : ~./.W.@X+X%X<.s.y.r.y.8.C =     X   o X   .                   ",
"                                  - f X.V./ ~.`.l.0.c.2.9.g.l.> d 9.r.x.1.O.g.c.`.Y.P.`.l.q <                                   ",
"                                  @ 6 3 d 3 ` !./.d 7 Q.+X/.1 2 % , U.W.U g P.OXI.a 3 2 & %   X                                 ",
"                                + X 4 6 2 0 1 8 % , 0 0 7 - p . X ; g & r : a , 5 # + > > @                                     ",
"                                        .             X   X X   .     o o X . X *       o           X                           "
};
